<svg width="30" height="30" viewBox="0 0 30 30" fill="none" xmlns="http://www.w3.org/2000/svg">
<path d="M20.0758 26.9324C20.4273 26.5808 20.6247 26.104 20.6247 25.6068C20.6247 25.1096 20.4273 24.6328 20.0758 24.2812L10.7945 14.9999L20.0758 5.71869C20.4173 5.36506 20.6063 4.89143 20.602 4.39982C20.5978 3.9082 20.4006 3.43792 20.0529 3.09028C19.7053 2.74264 19.235 2.54545 18.7434 2.54118C18.2518 2.53691 17.7782 2.7259 17.4245 3.06744L6.81765 13.6743C6.46614 14.0259 6.26868 14.5028 6.26868 14.9999C6.26868 15.4971 6.46614 15.974 6.81765 16.3256L17.4245 26.9324C17.7761 27.2839 18.253 27.4814 18.7501 27.4814C19.2473 27.4814 19.7242 27.2839 20.0758 26.9324V26.9324Z" fill="#F2785C"/>
</svg>
